#N canvas 931 30 505 466 12;
#X obj 148 239 i;
#X floatatom 120 280 3 0 0 0 - - -, f 3;
#X floatatom 107 219 5 0 0 0 - - -, f 5;
#X obj 130 198 bng 15 250 50 0 empty empty empty 17 7 0 10 -262144
-1 -1;
#X obj 187 31 bng 30 250 50 0 empty empty Go -22 7 0 10 -204786 -1
-1;
#X obj 187 64 tgl 15 0 empty empty empty 17 7 0 10 -262144 -1 -1 0
1;
#X obj 148 158 spigot;
#X floatatom 175 140 5 0 0 1 bpm - -, f 5;
#X obj 195 84 sel 0 1;
#X obj 216 103 s go;
#X obj 94 121 midiClockOut;
#X obj 195 121 s go;
#X floatatom 120 260 3 0 0 0 - - -, f 3;
#X obj 41 362 loadbang;
#N canvas 798 113 632 468 copyrightInfo 0;
#X text 74 306 j.raski@gmail.com;
#X text 43 19 This program creates generative music on an electronic
synthesiser. Copyright (C) 2019 Jerry Z. Raski This program is free
software: you can redistribute it and/or modify it under the terms
of the GNU General Public License as published by the Free Software
Foundation \, either version 3 of the License \, or (at your option)
any later version. This program is distributed in the hope that it
will be useful \, but WITHOUT ANY WARRANTY \; without even the implied
warranty of MERCHANTABILITY or FITNESS FOR A PARTICULAR PURPOSE. See
the GNU General Public License for more details. You should have received
a copy of the GNU General Public License along with this program. If
not \, see <https://www.gnu.org/licenses/>.;
#X restore 105 402 pd copyrightInfo;
#X obj 41 402 print -n;
#X obj 148 321 noteout 11;
#X obj 148 299 makenote 100 200;
#X msg 224 238 48;
#X msg 255 238 60;
#X obj 369 269 bng 15 250 50 0 empty empty empty 17 7 0 10 -262144
-1 -1;
#X msg 193 239 36;
#X text 284 238 Octive;
#X floatatom 193 279 5 0 0 0 - - -, f 5;
#X obj 224 218 loadbang;
#X obj 148 178 euclidRhythm trk11;
#X obj 148 198 turingSeq~ trk11;
#X obj 297 16 turingSeq trk11;
#X obj 148 259 randScales trk11;
#X obj 148 279 + 36;
#X msg 41 382 turingTest0Coast Copyright (C) 2019 Jerry Z Raski;
#X floatatom 107 239 5 0 0 0 - - -, f 5;
#X obj 369 288 s reset;
#X obj 369 195 expDist flip;
#X floatatom 442 269 7 0 0 0 - - -, f 7;
#X obj 148 219 * 11;
#X obj 369 155 loadbang;
#X obj 369 175 f 0.25;
#X connect 0 0 12 0;
#X connect 0 0 28 0;
#X connect 4 0 5 0;
#X connect 5 0 8 0;
#X connect 5 0 6 1;
#X connect 6 0 25 0;
#X connect 8 0 11 0;
#X connect 8 1 9 0;
#X connect 10 2 6 0;
#X connect 10 3 7 0;
#X connect 13 0 30 0;
#X connect 17 0 16 0;
#X connect 17 1 16 1;
#X connect 18 0 23 0;
#X connect 18 0 29 1;
#X connect 19 0 23 0;
#X connect 19 0 29 1;
#X connect 20 0 32 0;
#X connect 21 0 23 0;
#X connect 21 0 29 1;
#X connect 24 0 18 0;
#X connect 25 0 3 0;
#X connect 25 0 26 0;
#X connect 26 0 2 0;
#X connect 26 0 35 0;
#X connect 28 0 1 0;
#X connect 28 0 29 0;
#X connect 29 0 17 0;
#X connect 30 0 15 0;
#X connect 33 0 20 0;
#X connect 33 1 34 0;
#X connect 35 0 0 0;
#X connect 35 0 31 0;
#X connect 36 0 37 0;
#X connect 37 0 33 0;
