#N canvas 94 24 811 904 12;
#X floatatom 520 463 5 0 0 1 base_10 - -, f 5;
#X obj 464 464 / 2;
#X obj 408 464 / 2;
#X obj 352 463 / 2;
#X obj 352 482 mod 2;
#X obj 408 482 mod 2;
#X obj 464 482 mod 2;
#X obj 520 481 mod 2;
#X floatatom 374 528 5 0 0 0 b3 #1-b3-set #1-b3, f 5;
#X floatatom 567 528 5 0 0 0 b0 #1-b0-set #1-b0, f 5;
#X floatatom 502 529 5 0 0 0 b1 #1-b1-set #1-b1, f 5;
#X floatatom 437 529 5 0 0 0 b2 #1-b2-set #1-b2, f 5;
#X floatatom 308 528 5 0 0 0 b4 #1-b4-set #1-b4, f 5;
#X floatatom 243 529 5 0 0 0 b5 #1-b5-set #1-b5, f 5;
#X floatatom 178 529 5 0 0 0 b6 #1-b6-set #1-b6, f 5;
#X obj 240 461 / 2;
#X obj 184 462 / 2;
#X obj 128 462 / 2;
#X obj 128 481 mod 2;
#X obj 184 481 mod 2;
#X obj 240 481 mod 2;
#X obj 296 462 / 2;
#X obj 296 481 mod 2;
#X floatatom 115 528 5 0 0 0 b7 #1-b7-set #1-b7, f 5;
#X obj 128 500 s \$1-b7;
#X obj 184 500 s \$1-b6;
#X obj 240 500 s \$1-b5;
#X obj 296 500 s \$1-b4;
#X obj 352 500 s \$1-b3;
#X obj 408 500 s \$1-b2;
#X obj 464 500 s \$1-b1;
#X obj 520 500 s \$1-b0;
#X obj 654 460 setctl \$1-b0;
#X obj 654 479 setctl \$1-b1;
#X obj 655 498 setctl \$1-b2;
#X obj 655 517 setctl \$1-b3;
#X obj 655 536 setctl \$1-b4;
#X obj 655 557 setctl \$1-b5;
#X obj 655 578 setctl \$1-b6;
#X obj 655 598 setctl \$1-b7;
#X obj 503 172 f 0;
#X obj 503 191 + 1;
#X obj 503 210 mod 4;
#X obj 589 274 pow;
#X msg 575 255 2;
#X obj 589 236 t b f;
#X obj 668 376 loadbang;
#X floatatom 589 128 5 0 0 1 #_of_bits - -, f 5;
#X floatatom 550 392 0 0 0 0 - - -;
#X floatatom 509 392 0 0 0 0 - - -;
#X floatatom 550 328 0 0 0 0 - - -;
#X obj 550 346 t b f;
#X obj 509 373 div;
#X obj 550 373 mod;
#X obj 520 418 |;
#X floatatom 509 328 0 0 0 0 - - -;
#X msg 668 396 4;
#X obj 185 288 f 0;
#X obj 142 183 f 0;
#X obj 142 205 + 1;
#X obj 185 224 sel 0;
#X obj 142 224 mod 2;
#X floatatom 174 132 7 0 0 0 how_often_to_flip - -, f 7;
#X obj 162 247 bng 15 250 50 0 empty empty empty 17 7 0 10 -262144
-1 -1;
#X text 69 308 flipping machine;
#N canvas 1278 128 505 325 flipping 0;
#X obj 153 102 + 1;
#X obj 196 132 - 2;
#X floatatom 113 200 5 0 0 0 - - -, f 5;
#X obj 153 174 v left;
#X obj 196 152 v left;
#X obj 153 80 inlet;
#X obj 113 219 outlet;
#X obj 153 132 mod 2;
#X obj 153 153 sel 0;
#X text 86 47 flip the lsb of the number in the inlet;
#X text 166 218 outlet new seed;
#X text 182 101 add 1 if number is even;
#X text 248 152 subtract 1 if number is odd;
#N canvas 798 113 632 468 copyrightInfo 0;
#X text 74 306 j.raski@gmail.com;
#X text 43 19 This program creates generative music on an electronic
synthesiser. Copyright (C) 2019 Jerry Z. Raski This program is free
software: you can redistribute it and/or modify it under the terms
of the GNU General Public License as published by the Free Software
Foundation \, either version 3 of the License \, or (at your option)
any later version. This program is distributed in the hope that it
will be useful \, but WITHOUT ANY WARRANTY \; without even the implied
warranty of MERCHANTABILITY or FITNESS FOR A PARTICULAR PURPOSE. See
the GNU General Public License for more details. You should have received
a copy of the GNU General Public License along with this program. If
not \, see <https://www.gnu.org/licenses/>.;
#X restore 29 279 pd copyrightInfo;
#X connect 0 0 1 0;
#X connect 0 0 2 0;
#X connect 0 0 7 0;
#X connect 1 0 4 0;
#X connect 2 0 6 0;
#X connect 3 0 2 0;
#X connect 5 0 0 0;
#X connect 7 0 8 0;
#X connect 8 0 3 0;
#X restore 185 308 pd flipping;
#X obj 215 288 r \$1-news;
#X obj 529 440 s \$1-news;
#X obj 185 328 s \$1-s;
#X obj 478 237 r \$1-s;
#X floatatom 478 256 5 0 0 0 - - -, f 5;
#X floatatom 528 237 5 0 0 0 - - -, f 5;
#X obj 526 255 t b f;
#X obj 509 288 f;
#X obj 509 308 <<;
#X msg 521 152 -1;
#X text 398 152 clear ctr on flip;
#X text 450 192 bit ctr;
#X text 215 271 new seed;
#X text 616 275 2^n;
#X text 665 357 initial seed;
#X text 348 109 clock;
#X text 327 256 only shift on ctr chg;
#X text 337 309 shift seed left ctr bits;
#X text 82 225 flip ctr;
#X text 386 373 computes new seed;
#X obj 174 113 r \$1-change;
#X obj 589 109 r \$1-bits;
#X obj 387 109 inlet;
#X obj 408 588 * 4;
#X obj 520 570 r \$1-b0;
#X obj 464 570 r \$1-b1;
#X obj 408 570 r \$1-b2;
#X obj 520 590 * 1;
#X obj 464 589 * 2;
#X obj 500 624 +;
#X obj 470 647 +;
#X obj 319 835 outlet;
#X obj 352 588 * 8;
#X obj 296 588 * 16;
#X obj 241 588 * 32;
#X obj 185 588 * 64;
#X obj 128 588 * 128;
#X obj 128 570 r \$1-b7;
#X obj 185 570 r \$1-b6;
#X obj 241 570 r \$1-b5;
#X obj 296 570 r \$1-b4;
#X obj 352 570 r \$1-b3;
#X obj 445 674 +;
#X obj 416 698 +;
#X obj 383 724 +;
#X text 325 550 DAC conversion;
#X text 297 442 bit shifter visual;
#X obj 350 749 +;
#X obj 319 774 +;
#X obj 348 815 r \$1-range;
#X obj 319 815 / 1;
#X obj 589 294 s \$1-range;
#X text 425 814 output number 0-1;
#X obj 369 775 r go;
#X obj 369 794 tgl 15 0 empty empty empty 17 7 0 10 -262144 -1 -1 1
1;
#X obj 319 795 spigot;
#X obj 387 136 bng 15 250 50 0 empty empty empty 17 7 0 10 -262144
-1 -1;
#X obj 668 416 s \$1-s;
#X text 413 222 order of operation very important here;
#X floatatom 102 204 5 0 0 0 - - -, f 5;
#N canvas 798 113 632 468 copyrightInfo 0;
#X text 74 306 j.raski@gmail.com;
#X text 43 19 This program creates generative music on an electronic
synthesiser. Copyright (C) 2019 Jerry Z. Raski This program is free
software: you can redistribute it and/or modify it under the terms
of the GNU General Public License as published by the Free Software
Foundation \, either version 3 of the License \, or (at your option)
any later version. This program is distributed in the hope that it
will be useful \, but WITHOUT ANY WARRANTY \; without even the implied
warranty of MERCHANTABILITY or FITNESS FOR A PARTICULAR PURPOSE. See
the GNU General Public License for more details. You should have received
a copy of the GNU General Public License along with this program. If
not \, see <https://www.gnu.org/licenses/>.;
#X restore 22 836 pd copyrightInfo;
#X obj 304 17 r reset;
#X msg 265 46 0;
#X obj 295 70 s \$1-s;
#X obj 304 45 random 8;
#X floatatom 346 71 5 0 0 0 - - -, f 5;
#X obj 362 17 r \$1-range;
#X connect 0 0 1 0;
#X connect 0 0 7 0;
#X connect 1 0 2 0;
#X connect 1 0 6 0;
#X connect 2 0 3 0;
#X connect 2 0 5 0;
#X connect 3 0 4 0;
#X connect 3 0 21 0;
#X connect 4 0 28 0;
#X connect 5 0 29 0;
#X connect 6 0 30 0;
#X connect 7 0 31 0;
#X connect 15 0 16 0;
#X connect 15 0 20 0;
#X connect 16 0 17 0;
#X connect 16 0 19 0;
#X connect 17 0 18 0;
#X connect 18 0 24 0;
#X connect 19 0 25 0;
#X connect 20 0 26 0;
#X connect 21 0 22 0;
#X connect 21 0 15 0;
#X connect 22 0 27 0;
#X connect 40 0 41 0;
#X connect 41 0 42 0;
#X connect 42 0 40 1;
#X connect 42 0 71 0;
#X connect 43 0 50 0;
#X connect 43 0 117 0;
#X connect 44 0 43 0;
#X connect 45 0 44 0;
#X connect 45 0 43 0;
#X connect 45 1 43 1;
#X connect 46 0 56 0;
#X connect 47 0 45 0;
#X connect 47 0 42 1;
#X connect 48 0 54 0;
#X connect 49 0 54 1;
#X connect 50 0 51 0;
#X connect 51 0 52 0;
#X connect 51 0 53 0;
#X connect 51 1 52 1;
#X connect 51 1 53 1;
#X connect 52 0 49 0;
#X connect 53 0 48 0;
#X connect 54 0 67 0;
#X connect 54 0 0 0;
#X connect 55 0 52 0;
#X connect 55 0 53 0;
#X connect 56 0 123 0;
#X connect 57 0 65 0;
#X connect 58 0 59 0;
#X connect 58 0 60 0;
#X connect 58 0 125 0;
#X connect 59 0 61 0;
#X connect 60 0 57 0;
#X connect 60 0 63 0;
#X connect 60 0 75 0;
#X connect 61 0 58 1;
#X connect 62 0 61 1;
#X connect 65 0 68 0;
#X connect 66 0 57 1;
#X connect 69 0 70 0;
#X connect 70 0 73 1;
#X connect 71 0 72 0;
#X connect 72 0 73 0;
#X connect 72 1 74 1;
#X connect 73 0 74 0;
#X connect 74 0 55 0;
#X connect 75 0 40 1;
#X connect 86 0 62 0;
#X connect 87 0 47 0;
#X connect 88 0 40 0;
#X connect 88 0 122 0;
#X connect 88 0 58 0;
#X connect 89 0 96 1;
#X connect 90 0 93 0;
#X connect 91 0 94 0;
#X connect 92 0 89 0;
#X connect 93 0 95 0;
#X connect 94 0 95 1;
#X connect 95 0 96 0;
#X connect 96 0 108 0;
#X connect 98 0 108 1;
#X connect 99 0 109 1;
#X connect 100 0 110 1;
#X connect 101 0 113 1;
#X connect 102 0 114 1;
#X connect 103 0 102 0;
#X connect 104 0 101 0;
#X connect 105 0 100 0;
#X connect 106 0 99 0;
#X connect 107 0 98 0;
#X connect 108 0 109 0;
#X connect 109 0 110 0;
#X connect 110 0 113 0;
#X connect 113 0 114 0;
#X connect 114 0 121 0;
#X connect 115 0 116 1;
#X connect 116 0 97 0;
#X connect 119 0 120 0;
#X connect 120 0 121 1;
#X connect 121 0 116 0;
#X connect 127 0 57 0;
#X connect 127 0 75 0;
#X connect 127 0 128 0;
#X connect 127 0 130 0;
#X connect 128 0 58 1;
#X connect 130 0 129 0;
#X connect 130 0 131 0;
#X connect 132 0 130 1;
